<svg xmlns="http://www.w3.org/2000/svg" width="24" height="24" viewBox="0 0 24 24">
  <path fill="#000000" d="M14.215,2.301 L19.713,7.924 L19.715,7.926 Q19.859,8.072 19.93,8.249 Q20,8.423 20,8.625 L20,11.812 Q20,12.227 19.707,12.52 Q19.414,12.812 19,12.812 Q18.586,12.812 18.293,12.52 Q18,12.227 18,11.812 L18,9.625 L14.5,9.625 Q12.5,9.625 12.5,7.625 L12.5,4 L8,4 Q6,4 6,6 L6,18 Q6,20 8,20 L12,20 Q12.414,20 12.707,20.293 Q13,20.586 13,21 Q13,21.414 12.707,21.707 Q12.414,22 12,22 L8,22 Q4,22 4,18 L4,6 Q4,2 8,2 L13.493,2 L13.5,2 L13.506,2 Q13.713,2.001 13.889,2.075 Q14.066,2.15 14.211,2.297 Q14.213,2.299 14.215,2.301 Z M14.5,5.453 L14.5,7.625 L16.624,7.625 L14.5,5.453 Z"/>
  <path fill="#000000" d="M16.5,21 L16.5,17.414 L15.707,18.207 Q15.414,18.5 15,18.5 Q14.586,18.5 14.293,18.207 Q14,17.914 14,17.5 Q14,17.086 14.293,16.793 L16.793,14.293 Q17.086,14 17.5,14 Q17.862,14 18.132,14.224 Q18.17,14.256 18.207,14.293 L20.707,16.793 Q21,17.086 21,17.5 Q21,17.914 20.707,18.207 Q20.414,18.5 20,18.5 Q19.586,18.5 19.293,18.207 L18.5,17.414 L18.5,21 Q18.5,21.414 18.207,21.707 Q17.914,22 17.5,22 Q17.086,22 16.793,21.707 Q16.5,21.414 16.5,21 Z"/>
</svg>

